HIERARCHY
ROOT Hips
{
	OFFSET 0.00000 0.00000 0.00000
	CHANNELS 6 Xposition Yposition Zposition Zrotation Yrotation Xrotation 
	JOINT LHipJoint
	{
		OFFSET 0 0 0
		CHANNELS 3 Zrotation Yrotation Xrotation
		JOINT LeftUpLeg
		{
			OFFSET 1.80322 -1.53100 0.99595
			CHANNELS 3 Zrotation Yrotation Xrotation
			JOINT LeftLeg
			{
				OFFSET 2.25177 -6.18669 0.00000
				CHANNELS 3 Zrotation Yrotation Xrotation
				JOINT LeftFoot
				{
					OFFSET 2.26601 -6.22582 0.00000
					CHANNELS 3 Zrotation Yrotation Xrotation
					JOINT LeftToeBase
					{
						OFFSET 0.23701 -0.65119 2.15848
						CHANNELS 3 Zrotation Yrotation Xrotation
						End Site
						{
							OFFSET 0.00000 -0.00000 1.12949
						}
					}
				}
			}
		}
	}
	JOINT RHipJoint
	{
		OFFSET 0 0 0
		CHANNELS 3 Zrotation Yrotation Xrotation
		JOINT RightUpLeg
		{
			OFFSET -1.93977 -1.53100 0.99595
			CHANNELS 3 Zrotation Yrotation Xrotation
			JOINT RightLeg
			{
				OFFSET -2.28036 -6.26523 0.00000
				CHANNELS 3 Zrotation Yrotation Xrotation
				JOINT RightFoot
				{
					OFFSET -2.25490 -6.19528 0.00000
					CHANNELS 3 Zrotation Yrotation Xrotation
					JOINT RightToeBase
					{
						OFFSET -0.28375 -0.77960 2.23137
						CHANNELS 3 Zrotation Yrotation Xrotation
						End Site
						{
							OFFSET -0.00000 -0.00000 1.17899
						}
					}
				}
			}
		}
	}
	JOINT LowerBack
	{
		OFFSET 0 0 0
		CHANNELS 3 Zrotation Yrotation Xrotation
		JOINT Spine
		{
			OFFSET -0.00088 2.12090 -0.02806
			CHANNELS 3 Zrotation Yrotation Xrotation
			JOINT Spine1
			{
				OFFSET -0.00286 2.09666 0.12974
				CHANNELS 3 Zrotation Yrotation Xrotation
				JOINT Neck
				{
					OFFSET 0 0 0
					CHANNELS 3 Zrotation Yrotation Xrotation
					JOINT Neck1
					{
						OFFSET 0.07328 1.83526 0.07290
						CHANNELS 3 Zrotation Yrotation Xrotation
						JOINT Head
						{
							OFFSET -0.06683 1.74974 -0.49542
							CHANNELS 3 Zrotation Yrotation Xrotation
							End Site
							{
								OFFSET -0.03398 1.85163 -0.17573
							}
						}
					}
				}
				JOINT LeftShoulder
				{
					OFFSET 0 0 0
					CHANNELS 3 Zrotation Yrotation Xrotation
					JOINT LeftArm
					{
						OFFSET 3.02113 1.18018 0.40602
						CHANNELS 3 Zrotation Yrotation Xrotation
						JOINT LeftForeArm
						{
							OFFSET 4.58538 -0.00000 -0.00000
							CHANNELS 3 Zrotation Yrotation Xrotation
							JOINT LeftHand
							{
								OFFSET 2.68935 -0.00000 -0.00000
								CHANNELS 3 Zrotation Yrotation Xrotation
								JOINT LeftFingerBase
								{
									OFFSET 0 0 0
									CHANNELS 3 Zrotation Yrotation Xrotation
									JOINT LeftHandIndex1
									{
										OFFSET 0.58506 -0.00000 -0.00000
										CHANNELS 3 Zrotation Yrotation Xrotation
										End Site
										{
											OFFSET 0.47169 -0.00000 -0.00000
										}
									}
								}
								JOINT LThumb
								{
									OFFSET 0 0 0
									CHANNELS 3 Zrotation Yrotation Xrotation
									End Site
									{
										OFFSET 0.47889 -0.00000 0.47889
									}
								}
							}
						}
					}
				}
				JOINT RightShoulder
				{
					OFFSET 0 0 0
					CHANNELS 3 Zrotation Yrotation Xrotation
					JOINT RightArm
					{
						OFFSET -2.95074 1.18843 0.31430
						CHANNELS 3 Zrotation Yrotation Xrotation
						JOINT RightForeArm
						{
							OFFSET -4.47450 -0.00000 -0.00000
							CHANNELS 3 Zrotation Yrotation Xrotation
							JOINT RightHand
							{
								OFFSET -2.93896 -0.00000 -0.00000
								CHANNELS 3 Zrotation Yrotation Xrotation
								JOINT RightFingerBase
								{
									OFFSET 0 0 0
									CHANNELS 3 Zrotation Yrotation Xrotation
									JOINT RightHandIndex1
									{
										OFFSET -0.40509 -0.00000 -0.00000
										CHANNELS 3 Zrotation Yrotation Xrotation
										End Site
										{
											OFFSET -0.32660 -0.00000 -0.00000
										}
									}
								}
								JOINT RThumb
								{
									OFFSET 0 0 0
									CHANNELS 3 Zrotation Yrotation Xrotation
									End Site
									{
										OFFSET -0.33158 -0.00000 0.33158
									}
								}
							}
						}
					}
				}
			}
		}
	}
}
MOTION
Frames: 15
Frame Time: .0083333
1.4997 15.1303 4.9342 4.7683 -22.4889 -16.5046 0.0000 0.0000 0.0000 5.5789 0.6946 -84.1864 17.8871 19.8926 83.8115 -176.7595 3.0020 33.3908 0.0757 -1.7744 -4.8826 0.0000 0.0000 0.0000 26.7083 9.9755 1.8974 -4.3167 -12.5703 37.7807 -0.9274 -0.0668 -18.2312 -0.4194 -4.1565 11.5175 9.2652 1.2087 3.5464 -5.1423 1.8922 0.6206 -10.8214 0.9337 -0.8639 17.0910 11.8017 -1.5758 -10.9446 19.9834 41.2920 -4.6812 9.7249 19.3119 -0.0000 0.0000 0.0000 -61.6669 -11.5624 27.4214 158.8115 -32.0478 -113.8503 -0.0000 0.0000 -4.4737 25.2094 3.0593 1.4392 -7.1250 0.0000 -0.0000 -1.1399 33.3588 0.3253 -0.0000 0.0000 0.0000 68.0652 39.1374 48.1467 -146.2754 43.8796 -106.0782 0.0000 -0.0000 -13.6733 -31.6943 7.1273 -4.3810 7.1250 -0.0000 -0.0000 -3.5657 -21.6259 -2.0044
1.4727 15.1562 4.9783 5.1921 -23.2520 -16.8449 0.0000 0.0000 0.0000 6.5344 0.7672 -82.6282 15.8172 19.5752 77.6865 -176.7555 1.2273 33.8409 0.0567 -1.5363 -4.2257 0.0000 0.0000 0.0000 26.5683 10.1077 2.5656 -4.2249 -12.4538 37.3567 -0.9273 0.2740 -18.1151 -0.4350 -4.2326 11.7319 9.3646 1.2947 3.1373 -5.3104 1.9769 0.6293 -11.0565 0.9939 -0.5927 17.2286 11.9348 -1.0595 -11.0061 20.2736 41.3278 -4.7047 9.8772 19.3143 -0.0000 0.0000 0.0000 -61.6945 -10.4963 26.8878 158.8525 -32.0001 -113.8721 -0.0000 0.0000 -4.5206 25.2056 2.8375 1.3348 -7.1250 0.0000 -0.0000 -1.1355 33.1137 0.3308 -0.0000 0.0000 0.0000 70.0431 38.9846 50.2154 -146.1356 43.9840 -105.9812 0.0000 -0.0000 -13.1818 -31.8471 7.3266 -4.5292 7.1250 -0.0000 -0.0000 -3.6591 -21.3800 -2.0775
1.4496 15.1498 5.0374 5.5883 -23.9970 -17.1142 0.0000 0.0000 0.0000 7.7591 0.7021 -81.0550 13.7784 19.0455 71.5266 -176.8058 -0.9328 34.2143 0.0358 -1.2206 -3.3559 0.0000 0.0000 0.0000 26.4313 10.2783 3.1631 -4.1443 -12.3500 36.9816 -0.9313 0.6183 -18.0441 -0.4500 -4.3039 11.9332 9.4808 1.3721 2.7185 -5.4725 2.0502 0.5820 -11.2958 1.0426 -0.3766 17.3747 12.0637 -0.5120 -11.0535 20.5593 41.3885 -4.7274 10.0320 19.3247 -0.0000 -0.0000 0.0000 -61.7776 -9.3783 26.3949 158.8775 -31.9710 -113.8854 -0.0000 0.0000 -4.5246 25.1751 2.6854 1.2616 -7.1250 0.0000 -0.0000 -1.1552 32.9450 0.3413 -0.0000 -0.0000 0.0000 71.9909 38.7071 52.2854 -145.9876 44.0939 -105.8783 0.0000 -0.0000 -12.7829 -32.0387 7.4916 -4.6646 7.1250 -0.0000 -0.0000 -3.7826 -21.1698 -2.1659
1.4218 15.1793 5.0742 5.9566 -24.7243 -17.3312 0.0000 0.0000 0.0000 9.1690 0.4391 -78.8960 11.7168 18.2683 65.0882 -176.9846 -3.5878 34.2302 0.0153 -0.7992 -2.1965 0.0000 0.0000 0.0000 26.3279 10.4594 3.7235 -4.0385 -12.2115 36.4842 -0.9217 0.9293 -17.8565 -0.4636 -4.3673 12.1125 9.6174 1.4420 2.3059 -5.6271 2.1145 0.4960 -11.5402 1.0823 -0.2062 17.5298 12.1881 0.0492 -11.0973 20.8401 41.4620 -4.7530 10.1875 19.3418 0.0000 -0.0000 0.0000 -61.9181 -8.2480 25.9555 158.8914 -31.9549 -113.8927 -0.0000 0.0000 -4.4900 25.1221 2.6455 1.2398 -7.1250 0.0000 -0.0000 -1.1969 32.8995 0.3549 0.0000 -0.0000 0.0000 73.8530 38.3307 54.2999 -145.8400 44.2029 -105.7755 0.0000 -0.0000 -12.5243 -32.2327 7.6272 -4.7838 7.1250 -0.0000 -0.0000 -3.9098 -20.9932 -2.2547
1.3944 15.2095 5.1071 6.2987 -25.4330 -17.5174 0.0000 0.0000 0.0000 11.0374 -0.1757 -76.4030 9.7718 17.2795 58.7228 -177.3295 -6.9877 33.9281 0.0008 -0.1796 -0.4934 0.0000 0.0000 0.0000 26.2333 10.6320 4.2271 -3.9350 -12.0734 35.9921 -0.9091 1.2483 -17.6416 -0.4757 -4.4232 12.2703 9.7719 1.5018 1.9202 -5.7694 2.1673 0.3810 -11.7836 1.1117 -0.0838 17.6870 12.3095 0.6147 -11.1386 21.1190 41.5489 -4.7796 10.3434 19.3685 0.0000 -0.0000 0.0000 -62.1185 -7.1211 25.5737 158.8935 -31.9524 -113.8938 -0.0000 0.0000 -4.4255 25.0660 2.6929 1.2588 -7.1250 0.0000 -0.0000 -1.2441 32.9503 0.3674 0.0000 -0.0000 0.0000 75.5841 37.8742 56.2247 -145.6996 44.3061 -105.6775 0.0000 -0.0000 -12.4374 -32.3814 7.7459 -4.8854 7.1250 -0.0000 -0.0000 -4.0056 -20.8399 -2.3241
1.3685 15.2386 5.1372 6.6204 -26.1177 -17.6950 0.0000 0.0000 0.0000 13.6110 -1.3857 -73.4991 7.9937 16.1146 52.5400 -177.9665 -11.6064 33.1733 0.0154 0.8019 2.2040 0.0000 0.0000 0.0000 26.1326 10.7534 4.7360 -3.8083 -11.9009 35.3823 -0.8861 1.5800 -17.3252 -0.4864 -4.4720 12.4084 9.9389 1.5498 1.5666 -5.8978 2.2063 0.2572 -12.0207 1.1317 0.0075 17.8454 12.4291 1.1637 -11.1853 21.3976 41.6437 -4.8088 10.4984 19.4086 0.0000 0.0000 0.0000 -62.3723 -6.0355 25.2331 158.8650 -31.9856 -113.8787 -0.0000 0.0000 -4.3304 25.0602 2.7275 1.2747 -7.1250 0.0000 -0.0000 -1.2499 32.9885 0.3679 0.0000 0.0000 0.0000 77.1412 37.3753 58.0173 -145.5656 44.4040 -105.5839 0.0000 -0.0000 -12.5234 -32.4638 7.8759 -4.9821 7.1250 -0.0000 -0.0000 -4.0525 -20.6794 -2.3661
1.3449 15.2644 5.1666 6.9297 -26.7753 -17.8855 0.0000 0.0000 0.0000 17.2969 -3.6266 -70.1301 6.4709 14.8696 46.8434 -179.2533 -18.3422 31.3909 0.1510 2.5037 6.8999 0.0000 0.0000 0.0000 26.0154 10.8367 5.1879 -3.7020 -11.7530 34.8635 -0.8664 1.9488 -17.0383 -0.4955 -4.5129 12.5244 10.1032 1.5795 1.2598 -6.0034 2.2237 0.1290 -12.2328 1.1377 0.0608 17.9987 12.5485 1.7066 -11.2482 21.6840 41.7381 -4.8435 10.6546 19.4574 0.0000 0.0000 0.0000 -62.6865 -4.9757 24.9267 158.8212 -32.0364 -113.8555 -0.0000 0.0000 -4.2058 25.1074 2.7910 1.3071 -7.1250 0.0000 -0.0000 -1.2137 33.0598 0.3552 0.0000 0.0000 0.0000 78.4918 36.8532 59.6700 -145.4361 44.4982 -105.4932 0.0000 -0.0000 -12.7587 -32.4859 8.0497 -5.0951 7.1250 -0.0000 -0.0000 -4.0518 -20.4733 -2.3845
1.3245 15.2848 5.1975 7.2364 -27.4002 -18.1061 0.0000 0.0000 0.0000 22.7233 -7.7016 -66.2087 5.2428 13.6521 41.8614 177.7153 -29.0451 26.3609 0.8091 5.7404 16.0332 0.0000 0.0000 0.0000 25.8715 10.8815 5.5785 -3.6260 -11.6453 34.4886 -0.8539 2.3605 -16.8224 -0.5046 -4.5535 12.6394 10.2534 1.5889 1.0016 -6.0867 2.2168 0.0078 -12.4133 1.1296 0.0855 18.1522 12.6686 2.2329 -11.3358 21.9814 41.8307 -4.8871 10.8129 19.5209 -0.0000 0.0000 0.0000 -63.0545 -3.9544 24.6364 158.7655 -32.1010 -113.8259 -0.0000 0.0000 -4.0640 25.2181 2.8435 1.3383 -7.1250 0.0000 -0.0000 -1.1254 33.1207 0.3277 -0.0000 0.0000 0.0000 79.6200 36.3435 61.1621 -145.2934 44.6015 -105.3930 0.0000 -0.0000 -13.0796 -32.4318 8.2327 -5.1987 7.1250 -0.0000 -0.0000 -3.9956 -20.2641 -2.3701
1.3082 15.2971 5.2326 7.5442 -27.9813 -18.3591 0.0000 0.0000 0.0000 30.7869 -14.9448 -61.8702 4.3171 12.5708 37.7824 172.1948 -44.0852 7.8541 3.1899 10.9962 32.2672 0.0000 0.0000 0.0000 25.6917 10.8879 5.9075 -3.5855 -11.5874 34.2874 -0.8515 2.8120 -16.7138 -0.5152 -4.6007 12.7731 10.3831 1.5731 0.7887 -6.1477 2.1789 -0.1077 -12.5582 1.1037 0.0796 18.3052 12.7884 2.7519 -11.4480 22.2882 41.9165 -4.9403 10.9733 19.5932 -0.0000 -0.0000 0.0000 -63.4669 -2.9643 24.3510 158.7146 -32.1600 -113.7989 -0.0000 0.0000 -3.9084 25.3682 2.9246 1.3858 -7.1250 0.0000 -0.0000 -1.0059 33.2146 0.2906 -0.0000 -0.0000 0.0000 80.5237 35.8674 62.4954 -145.1244 44.7231 -105.2742 0.0000 -0.0000 -13.4054 -32.3408 8.4273 -5.3015 7.1250 -0.0000 -0.0000 -3.9120 -20.0453 -2.3395
1.2966 15.3007 5.2732 7.8571 -28.5059 -18.6404 0.0000 0.0000 0.0000 42.8024 -27.1475 -58.1559 3.6731 11.7122 34.7212 -178.3215 -45.7818 -38.5282 6.3890 14.7950 46.5237 0.0000 0.0000 0.0000 25.4689 10.8551 6.1870 -3.5752 -11.5726 34.2364 -0.8589 3.2885 -16.7118 -0.5259 -4.6471 12.9048 10.4855 1.5341 0.6157 -6.1918 2.1123 -0.2185 -12.6691 1.0612 0.0456 18.4647 12.9036 3.2558 -11.5804 22.5947 41.9979 -5.0035 11.1331 19.6759 0.0000 0.0000 0.0000 -63.9056 -2.0233 24.0762 158.6748 -32.2059 -113.7777 -0.0000 0.0000 -3.7333 25.5320 3.0971 1.4783 -7.1250 0.0000 -0.0000 -0.8779 33.4103 0.2495 0.0000 0.0000 0.0000 81.2004 35.4469 63.6534 -144.9158 44.8721 -105.1273 0.0000 -0.0000 -13.6625 -32.2306 8.5687 -5.3665 7.1250 -0.0000 -0.0000 -3.8200 -19.8914 -2.2975
1.2889 15.2977 5.3182 8.1614 -28.9589 -18.9323 0.0000 0.0000 0.0000 43.1064 -26.5524 -56.3266 3.2703 11.1203 32.6866 -173.4881 -33.7529 -49.5123 7.8207 15.9858 51.9144 0.0000 0.0000 0.0000 25.2149 10.7771 6.4454 -3.5789 -11.5778 34.2544 -0.8716 3.7690 -16.7758 -0.5379 -4.6994 13.0533 10.5655 1.4699 0.4743 -6.2212 2.0142 -0.3309 -12.7513 1.0001 -0.0192 18.6286 13.0132 3.7347 -11.7098 22.8913 42.0918 -5.0670 11.2896 19.7749 0.0000 0.0000 0.0000 -64.3510 -1.1358 23.8048 158.6609 -32.2221 -113.7702 -0.0000 0.0000 -3.5705 25.6576 3.3279 1.5973 -7.1250 0.0000 -0.0000 -0.7827 33.6699 0.2175 0.0000 0.0000 0.0000 81.6608 35.0979 64.6364 -144.6572 45.0554 -104.9445 0.0000 -0.0000 -13.8014 -32.1351 8.6605 -5.4033 7.1250 -0.0000 -0.0000 -3.7434 -19.7940 -2.2593
1.2823 15.2954 5.3616 8.4332 -29.3230 -19.2104 0.0000 0.0000 0.0000 43.3831 -26.1350 -55.0988 3.0607 10.7927 31.5840 -172.3214 -28.4880 -52.4095 8.1127 16.2015 52.9675 0.0000 0.0000 0.0000 24.9600 10.6401 6.7106 -3.5743 -11.5713 34.2316 -0.8830 4.2197 -16.8397 -0.5505 -4.7532 13.2061 10.6326 1.3801 0.3556 -6.2370 1.8831 -0.4454 -12.8114 0.9200 -0.1102 18.8005 13.1123 4.1771 -11.8275 23.1639 42.1949 -5.1289 11.4376 19.8851 -0.0000 0.0000 0.0000 -64.7800 -0.3330 23.5436 158.6692 -32.2124 -113.7747 -0.0000 0.0000 -3.4261 25.7363 3.5738 1.7211 -7.1250 0.0000 -0.0000 -0.7265 33.9452 0.1970 -0.0000 0.0000 0.0000 81.9109 34.8336 65.4383 -144.3595 45.2641 -104.7334 0.0000 -0.0000 -13.8107 -32.0661 8.6809 -5.4015 7.1250 -0.0000 -0.0000 -3.6923 -19.7774 -2.2298
1.2738 15.3000 5.3972 8.6440 -29.5812 -19.4533 0.0000 0.0000 0.0000 43.5297 -25.9720 -54.5223 2.9985 10.6927 31.2504 -172.1432 -27.8051 -52.9160 8.0429 16.1507 52.7170 0.0000 0.0000 0.0000 24.7423 10.4274 7.0032 -3.5439 -11.5274 34.0798 -0.8870 4.6035 -16.8465 -0.5618 -4.8006 13.3408 10.6915 1.2610 0.2604 -6.2370 1.7148 -0.5632 -12.8494 0.8185 -0.2306 18.9791 13.1978 4.5759 -11.9210 23.4013 42.3086 -5.1847 11.5728 20.0020 -0.0000 0.0000 0.0000 -65.1686 0.3586 23.2989 158.7021 -32.1745 -113.7922 -0.0000 0.0000 -3.3289 25.7372 3.8728 1.8649 -7.1250 0.0000 -0.0000 -0.7363 34.2768 0.1938 -0.0000 0.0000 0.0000 81.9654 34.6526 66.0673 -144.0464 45.4812 -104.5106 0.0000 -0.0000 -13.7126 -32.0068 8.6199 -5.3518 7.1250 -0.0000 -0.0000 -3.6560 -19.8547 -2.2014
1.2621 15.3112 5.4231 8.7534 -29.7234 -19.6352 0.0000 0.0000 0.0000 43.5274 -26.1001 -54.5337 3.0468 10.7704 31.5094 -172.4536 -30.0797 -52.2261 7.7904 15.9629 51.8040 0.0000 0.0000 0.0000 24.6048 10.1397 7.3213 -3.4832 -11.4390 33.7750 -0.8814 4.8959 -16.7723 -0.5718 -4.8426 13.4602 10.7562 1.1137 0.1849 -6.2181 1.5101 -0.6730 -12.8698 0.6979 -0.3653 19.2763 13.3352 4.4271 -11.7448 23.5209 42.6707 -5.3002 11.7173 20.4843 -0.0000 0.0000 0.0000 -65.4900 0.8959 23.0779 158.7376 -32.1333 -113.8111 -0.0000 0.0000 -3.2716 25.7133 4.0776 1.9612 -7.1250 0.0000 -0.0000 -0.7637 34.5030 0.1968 -0.0000 0.0000 0.0000 81.8444 34.5632 66.5199 -143.7504 45.6841 -104.2992 0.0000 -0.0000 -13.5527 -31.9539 8.5098 -5.2736 7.1250 -0.0000 -0.0000 -3.6287 -19.9886 -2.1740
1.2485 15.3236 5.4417 8.7304 -29.7484 -19.7383 0.0000 0.0000 0.0000 43.4626 -26.4612 -55.0427 3.1786 10.9787 32.2080 -173.5202 -35.4109 -49.8409 7.2878 15.5696 49.9548 0.0000 0.0000 0.0000 24.5754 9.7884 7.6422 -3.4038 -11.3216 33.3724 -0.8698 5.0791 -16.6492 -0.5812 -4.8816 13.5713 10.8257 0.9365 0.1301 -6.1679 1.2672 -0.7612 -12.8571 0.5589 -0.5012 19.4410 13.3933 4.6542 -11.7609 23.6572 42.7807 -5.3277 11.8090 20.6018 -0.0000 0.0000 0.0000 -65.7365 1.2439 22.8895 158.7788 -32.0857 -113.8330 -0.0000 0.0000 -3.2439 25.6769 4.2476 2.0394 -7.1250 0.0000 -0.0000 -0.8005 34.6900 0.2026 -0.0000 0.0000 0.0000 81.5595 34.5672 66.8065 -143.5141 45.8445 -104.1299 0.0000 -0.0000 -13.3889 -31.8869 8.3723 -5.1760 7.1250 -0.0000 -0.0000 -3.5937 -20.1558 -2.1395
